<svg width="30" height="30" viewBox="0 0 30 30" fill="none" xmlns="http://www.w3.org/2000/svg">
<path d="M14.9999 30C6.72891 30 0 23.2709 0 14.9999C0 6.72906 6.72891 0 14.9999 0C23.271 0 30 6.72906 30 14.9999C30 23.2709 23.271 30 14.9999 30Z" fill="#00060D"/>
<path d="M15 25C9.48594 25 5 20.514 5 15C5 9.48604 9.48594 5 15 5C20.514 5 25 9.48604 25 15C25 20.514 20.514 25 15 25ZM15 6.36892C10.2408 6.36892 6.36894 10.2408 6.36885 15C6.36885 19.7591 10.2407 23.631 15 23.6311C19.7591 23.631 23.631 19.7591 23.631 14.9999C23.631 10.2409 19.7591 6.36892 15 6.36892Z" fill="white"/>
<path d="M17.0004 19.7663C16.872 19.8946 16.6979 19.9666 16.5164 19.9666C16.3349 19.9666 16.1609 19.8946 16.0325 19.7663C15.9689 19.7027 15.9184 19.6272 15.884 19.5442C15.8496 19.4611 15.8319 19.3721 15.8319 19.2822C15.8319 19.1923 15.8497 19.1033 15.8841 19.0202C15.9185 18.9372 15.969 18.8617 16.0326 18.7982L18.6628 16.1681L11.0462 16.1674C10.8647 16.1674 10.6906 16.0952 10.5622 15.9669C10.4339 15.8385 10.3618 15.6644 10.3618 15.4829C10.3618 15.3013 10.4339 15.1272 10.5623 14.9989C10.6907 14.8705 10.8648 14.7984 11.0463 14.7984L18.6631 14.7992L16.0323 12.1686C15.9039 12.0402 15.8318 11.8661 15.8318 11.6846C15.8318 11.503 15.9039 11.3289 16.0322 11.2005C16.1606 11.0721 16.3347 11 16.5163 11C16.6978 11 16.8719 11.0721 17.0003 11.2005L20.7995 14.9995C20.8631 15.063 20.9135 15.1385 20.9479 15.2215C20.9823 15.3046 21 15.3936 21 15.4835C20.9999 15.665 20.9278 15.8392 20.7994 15.9676L17.0004 19.7663Z" fill="white"/>
</svg>
