<svg width="30" height="30" viewBox="0 0 30 30" fill="none" xmlns="http://www.w3.org/2000/svg">
<path d="M15.0001 30C23.2711 30 30 23.2709 30 14.9999C30 6.72906 23.2711 0 15.0001 0C6.72904 0 0 6.72906 0 14.9999C0 23.2709 6.72904 30 15.0001 30Z" fill="#00060D"/>
<path d="M15 25C20.5141 25 25 20.514 25 15C25 9.48604 20.5141 5 15 5C9.48603 5 5 9.48604 5 15C5 20.514 9.48603 25 15 25ZM15 6.36892C19.7592 6.36892 23.6311 10.2408 23.6311 15C23.6311 19.7591 19.7593 23.631 15 23.6311C10.2409 23.631 6.36904 19.7591 6.36904 14.9999C6.36904 10.2409 10.2409 6.36892 15 6.36892Z" fill="white"/>
<path d="M12.9996 19.7663C13.128 19.8946 13.3021 19.9666 13.4836 19.9666C13.6651 19.9666 13.8391 19.8946 13.9675 19.7663C14.0311 19.7027 14.0816 19.6272 14.116 19.5442C14.1504 19.4611 14.1681 19.3721 14.1681 19.2822C14.1681 19.1923 14.1503 19.1033 14.1159 19.0202C14.0815 18.9372 14.031 18.8617 13.9674 18.7982L11.3372 16.1681L18.9538 16.1674C19.1353 16.1674 19.3094 16.0952 19.4378 15.9669C19.5661 15.8385 19.6382 15.6644 19.6382 15.4829C19.6382 15.3013 19.5661 15.1272 19.4377 14.9989C19.3093 14.8705 19.1352 14.7984 18.9537 14.7984L11.3369 14.7992L13.9677 12.1686C14.0961 12.0402 14.1682 11.8661 14.1682 11.6846C14.1682 11.503 14.0961 11.3289 13.9678 11.2005C13.8394 11.0721 13.6653 11 13.4837 11C13.3022 11 13.1281 11.0721 12.9997 11.2005L9.2005 14.9995C9.13692 15.063 9.08649 15.1385 9.05209 15.2215C9.01768 15.3046 8.99998 15.3936 9 15.4835C9.00009 15.665 9.07224 15.8392 9.2006 15.9676L12.9996 19.7663Z" fill="white"/>
</svg>
