<svg width="200" height="400" viewBox="0 0 200 400" fill="none" xmlns="http://www.w3.org/2000/svg">
<circle cx="200" cy="200" r="200" transform="matrix(-1 0 0 1 400 0)" fill="black"/>
<path d="M132.502 177.335C130.229 184.313 129 191.763 129 199.5C129 238.988 161.012 271 200.5 271C239.988 271 272 238.988 272 199.5C272 160.012 239.988 128 200.5 128C182.926 128 166.832 134.341 154.383 144.859" stroke="white" stroke-width="6" stroke-linecap="round"/>
<circle cx="94" cy="94" r="90" transform="matrix(-1 0 0 1 294 106)" stroke="white" stroke-width="8"/>
<path d="M115.706 269.823C116.391 270.668 117.089 271.504 117.798 272.329C138.155 296.005 168.326 311 202 311C263.304 311 313 261.304 313 200C313 138.696 263.304 89 202 89C140.696 89 91 138.696 91 200C91 209.389 92.1657 218.505 94.3602 227.213" stroke="white" stroke-width="6" stroke-linecap="round"/>
<circle cx="132.5" cy="132.5" r="127.5" transform="matrix(-1 0 0 1 333 67)" stroke="white" stroke-width="10"/>
<path d="M200 258C200 250 186.932 248.707 180.866 246.194C174.8 243.681 169.288 239.998 164.645 235.355C160.002 230.712 156.319 225.2 153.806 219.134C151.293 213.068 150 206.566 150 200C150 193.434 151.293 186.932 153.806 180.866C156.319 174.8 160.002 169.288 164.645 164.645C169.288 160.002 174.8 156.319 180.866 153.806C186.932 151.293 200 150 200 142V200V258Z" fill="#D9D9D9"/>
</svg>
