<svg width="160" height="160" viewBox="0 0 160 160" fill="none" xmlns="http://www.w3.org/2000/svg">
<circle cx="80" cy="80" r="80" transform="matrix(-1 0 0 1 160 0)" fill="black"/>
<circle cx="80" cy="80" r="15" fill="white"/>
<path d="M80 65C71.7158 65 65 71.7157 65 80C65 88.2843 71.7158 95 80 95C88.2842 95 95 88.2843 95 80C95 71.7157 88.2842 65 80 65ZM85.1844 80.7951L77.6844 85.4826C77.5424 85.5712 77.3793 85.6203 77.212 85.6246C77.0447 85.629 76.8793 85.5885 76.7329 85.5073C76.5866 85.4262 76.4646 85.3074 76.3797 85.1633C76.2948 85.0191 76.25 84.8548 76.25 84.6875V75.3125C76.25 74.9715 76.4349 74.6579 76.7329 74.4927C76.8792 74.4112 77.0447 74.3705 77.212 74.3749C77.3794 74.3792 77.5425 74.4285 77.6844 74.5174L85.1844 79.2049C85.4584 79.3766 85.625 79.6769 85.625 80C85.625 80.3231 85.4584 80.6235 85.1844 80.7951Z" fill="#716161"/>
<path d="M56 80.5C56 66.969 66.969 56 80.5 56C86.5212 56 92.0374 58.1732 96.3029 61.777C96.718 62.1277 96.7702 62.7488 96.4195 63.1638C96.0689 63.5789 95.4481 63.631 95.033 63.2804C91.1092 59.9654 86.0391 57.9678 80.5 57.9678C68.0558 57.9678 57.9678 68.0558 57.9678 80.5C57.9678 92.9442 68.0558 103.032 80.5 103.032C92.9442 103.032 103.032 92.9442 103.032 80.5C103.032 78.2127 102.692 76.0065 102.059 73.9287L101.929 73.5149L101.914 73.4662C101.778 72.9637 102.059 72.4375 102.559 72.2744C103.06 72.1113 103.597 72.3714 103.783 72.8576L103.8 72.9054L103.942 73.3557C104.63 75.6171 105 78.0162 105 80.5C105 94.031 94.031 105 80.5 105C66.969 105 56 94.031 56 80.5Z" fill="white"/>
<path d="M108.404 80.5C108.404 65.0889 95.9111 52.5957 80.5 52.5957C65.0889 52.5957 52.5957 65.0889 52.5957 80.5C52.5957 95.9111 65.0889 108.404 80.5 108.404V111C63.6553 111 50 97.3447 50 80.5C50 63.6553 63.6553 50 80.5 50C97.3447 50 111 63.6553 111 80.5C111 97.3447 97.3447 111 80.5 111V108.404C95.9111 108.404 108.404 95.9111 108.404 80.5Z" fill="white"/>
<path d="M116.865 89.6928C116.732 90.2206 116.196 90.5407 115.668 90.4076C115.14 90.2745 114.82 89.7389 114.953 89.2112L116.865 89.6928ZM116.029 80.5C116.029 60.878 100.122 44.9713 80.5 44.9713C60.8781 44.9713 44.9713 60.8781 44.9713 80.5C44.9713 100.122 60.878 116.029 80.5 116.029C91.278 116.029 100.934 111.231 107.452 103.651C107.679 103.387 107.902 103.119 108.121 102.848C108.464 102.425 109.085 102.36 109.508 102.703C109.931 103.046 109.996 103.666 109.653 104.089C109.422 104.375 109.186 104.657 108.946 104.936C102.07 112.933 91.8765 118 80.5 118C59.7893 118 43 101.211 43 80.5C43 59.7893 59.7893 43 80.5 43C101.211 43 118 59.7893 118 80.5C118 83.6704 117.606 86.7503 116.865 89.6928L114.953 89.2112C115.655 86.4249 116.029 83.5067 116.029 80.5Z" fill="white"/>
<path d="M120.721 80.5002C120.721 58.2869 102.713 40.2794 80.5002 40.2794C58.2869 40.2794 40.2794 58.2869 40.2794 80.5002C40.2794 102.713 58.2869 120.721 80.5002 120.721V124L79.9378 123.996C56.3596 123.698 37.3021 104.64 37.0035 81.0622L37 80.5002C37 56.4757 56.4757 37 80.5002 37L81.0622 37.0035C104.828 37.3045 124 56.6634 124 80.5002L123.996 81.0622C123.696 104.828 104.337 124 80.5002 124V120.721C102.713 120.721 120.721 102.713 120.721 80.5002Z" fill="white"/>
</svg>
