<svg width="1556" height="450" viewBox="0 0 1556 450" fill="none" xmlns="http://www.w3.org/2000/svg">
<path d="M1546 0H1116C1110.48 0 1106 4.47715 1106 10V156.468C1106 160.928 1108.94 164.871 1113.01 166.701C1126.11 172.597 1153 189.073 1153 225C1153 260.746 1126.38 276.671 1113.21 282.363C1109.05 284.161 1106 288.155 1106 292.688V440C1106 445.523 1110.48 450 1116 450H1546C1551.52 450 1556 445.523 1556 440V10C1556 4.47715 1551.52 0 1546 0Z" fill="#9C9393"/>
<mask id="mask0_484_1564" style="mask-type:alpha" maskUnits="userSpaceOnUse" x="1106" y="0" width="450" height="450">
<path d="M1546 0H1116C1110.48 0 1106 4.47715 1106 10V156.468C1106 160.928 1108.94 164.871 1113.01 166.701C1126.11 172.597 1153 189.073 1153 225C1153 260.746 1126.38 276.671 1113.21 282.363C1109.05 284.161 1106 288.155 1106 292.688V440C1106 445.523 1110.48 450 1116 450H1546C1551.52 450 1556 445.523 1556 440V10C1556 4.47715 1551.52 0 1546 0Z" fill="#9C9393"/>
</mask>
<g mask="url(#mask0_484_1564)">
<circle cx="1091" cy="218" r="200" fill="black"/>
<path d="M1159.5 202.335C1161.77 209.313 1163 216.763 1163 224.5C1163 263.988 1130.99 296 1091.5 296C1052.01 296 1020 263.988 1020 224.5C1020 185.012 1052.01 153 1091.5 153C1109.07 153 1125.17 159.341 1137.62 169.859" stroke="white" stroke-width="6" stroke-linecap="round"/>
<circle cx="1091" cy="225" r="90" stroke="white" stroke-width="8"/>
<path d="M1175.29 294.823C1174.61 295.668 1173.91 296.504 1173.2 297.329C1152.85 321.005 1122.67 336 1089 336C1027.7 336 978 286.304 978 225C978 163.696 1027.7 114 1089 114C1150.3 114 1200 163.696 1200 225C1200 234.389 1198.83 243.505 1196.64 252.213" stroke="white" stroke-width="6" stroke-linecap="round"/>
<circle cx="1091.5" cy="224.5" r="127.5" stroke="white" stroke-width="10"/>
</g>
<path d="M474 10C474 4.47715 478.477 0 484 0H1072C1077.52 0 1082 4.4551 1082 9.97795C1082 71.2372 1082 152.262 1082 178.73C1082 183.774 1085.75 187.996 1090.64 189.204C1104.46 192.614 1130 202.024 1130 225C1130 247.976 1104.46 257.386 1090.64 260.796C1085.75 262.004 1082 266.285 1082 271.328V440C1082 445.523 1077.52 450 1072 450H484C478.477 450 474 445.523 474 440V10Z" fill="#9C9393"/>
<circle cx="1080" cy="225" r="50" fill="#9C9393"/>
<mask id="mask1_484_1564" style="mask-type:alpha" maskUnits="userSpaceOnUse" x="474" y="0" width="656" height="450">
<path d="M474 10C474 4.47715 478.477 0 484 0H1072C1077.52 0 1082 4.4551 1082 9.97795C1082 71.2372 1082 152.262 1082 178.73C1082 183.774 1085.75 187.996 1090.64 189.204C1104.46 192.614 1130 202.024 1130 225C1130 247.976 1104.46 257.386 1090.64 260.796C1085.75 262.004 1082 266.285 1082 271.328V440C1082 445.523 1077.52 450 1072 450H484C478.477 450 474 445.523 474 440V10Z" fill="#9C9393"/>
</mask>
<g mask="url(#mask1_484_1564)">
</g>
<path d="M501.52 210V184.08H517.126V188.418H505.858V194.88H514.966V199.2H505.858V210H501.52ZM528.674 210.54C526.706 210.54 524.978 210.114 523.49 209.262C522.002 208.41 520.838 207.228 519.998 205.716C519.17 204.204 518.756 202.464 518.756 200.496C518.756 198.372 519.164 196.53 519.98 194.97C520.796 193.398 521.93 192.18 523.382 191.316C524.834 190.452 526.514 190.02 528.422 190.02C530.438 190.02 532.148 190.494 533.552 191.442C534.968 192.378 536.018 193.704 536.702 195.42C537.386 197.136 537.644 199.158 537.476 201.486H533.174V199.902C533.162 197.79 532.79 196.248 532.058 195.276C531.326 194.304 530.174 193.818 528.602 193.818C526.826 193.818 525.506 194.37 524.642 195.474C523.778 196.566 523.346 198.168 523.346 200.28C523.346 202.248 523.778 203.772 524.642 204.852C525.506 205.932 526.766 206.472 528.422 206.472C529.49 206.472 530.408 206.238 531.176 205.77C531.956 205.29 532.556 204.6 532.976 203.7L537.26 204.996C536.516 206.748 535.364 208.11 533.804 209.082C532.256 210.054 530.546 210.54 528.674 210.54ZM521.978 201.486V198.21H535.352V201.486H521.978ZM550.331 210.54C548.363 210.54 546.635 210.114 545.147 209.262C543.659 208.41 542.495 207.228 541.655 205.716C540.827 204.204 540.413 202.464 540.413 200.496C540.413 198.372 540.821 196.53 541.637 194.97C542.453 193.398 543.587 192.18 545.039 191.316C546.491 190.452 548.171 190.02 550.079 190.02C552.095 190.02 553.805 190.494 555.209 191.442C556.625 192.378 557.675 193.704 558.359 195.42C559.043 197.136 559.301 199.158 559.133 201.486H554.831V199.902C554.819 197.79 554.447 196.248 553.715 195.276C552.983 194.304 551.831 193.818 550.259 193.818C548.483 193.818 547.163 194.37 546.299 195.474C545.435 196.566 545.003 198.168 545.003 200.28C545.003 202.248 545.435 203.772 546.299 204.852C547.163 205.932 548.423 206.472 550.079 206.472C551.147 206.472 552.065 206.238 552.833 205.77C553.613 205.29 554.213 204.6 554.633 203.7L558.917 204.996C558.173 206.748 557.021 208.11 555.461 209.082C553.913 210.054 552.203 210.54 550.331 210.54ZM543.635 201.486V198.21H557.009V201.486H543.635ZM563.509 210V183.54H567.847V210H563.509ZM591.84 210C590.556 210.24 589.296 210.342 588.06 210.306C586.836 210.282 585.738 210.06 584.766 209.64C583.794 209.208 583.056 208.53 582.552 207.606C582.108 206.766 581.874 205.908 581.85 205.032C581.826 204.156 581.814 203.166 581.814 202.062V185.16H586.134V201.81C586.134 202.59 586.14 203.274 586.152 203.862C586.176 204.45 586.302 204.93 586.53 205.302C586.962 206.022 587.652 206.424 588.6 206.508C589.548 206.592 590.628 206.544 591.84 206.364V210ZM578.286 193.962V190.56H591.84V193.962H578.286ZM609.466 210V200.64C609.466 200.028 609.424 199.35 609.34 198.606C609.256 197.862 609.058 197.148 608.746 196.464C608.446 195.768 607.99 195.198 607.378 194.754C606.778 194.31 605.962 194.088 604.93 194.088C604.378 194.088 603.832 194.178 603.292 194.358C602.752 194.538 602.26 194.85 601.816 195.294C601.384 195.726 601.036 196.326 600.772 197.094C600.508 197.85 600.376 198.822 600.376 200.01L597.802 198.912C597.802 197.256 598.12 195.756 598.756 194.412C599.404 193.068 600.352 192 601.6 191.208C602.848 190.404 604.384 190.002 606.208 190.002C607.648 190.002 608.836 190.242 609.772 190.722C610.708 191.202 611.452 191.814 612.004 192.558C612.556 193.302 612.964 194.094 613.228 194.934C613.492 195.774 613.66 196.572 613.732 197.328C613.816 198.072 613.858 198.678 613.858 199.146V210H609.466ZM595.984 210V184.08H599.854V197.724H600.376V210H595.984ZM627.393 210.54C625.425 210.54 623.697 210.114 622.209 209.262C620.721 208.41 619.557 207.228 618.717 205.716C617.889 204.204 617.475 202.464 617.475 200.496C617.475 198.372 617.883 196.53 618.699 194.97C619.515 193.398 620.649 192.18 622.101 191.316C623.553 190.452 625.233 190.02 627.141 190.02C629.157 190.02 630.867 190.494 632.271 191.442C633.687 192.378 634.737 193.704 635.421 195.42C636.105 197.136 636.363 199.158 636.195 201.486H631.893V199.902C631.881 197.79 631.509 196.248 630.777 195.276C630.045 194.304 628.893 193.818 627.321 193.818C625.545 193.818 624.225 194.37 623.361 195.474C622.497 196.566 622.065 198.168 622.065 200.28C622.065 202.248 622.497 203.772 623.361 204.852C624.225 205.932 625.485 206.472 627.141 206.472C628.209 206.472 629.127 206.238 629.895 205.77C630.675 205.29 631.275 204.6 631.695 203.7L635.979 204.996C635.235 206.748 634.083 208.11 632.523 209.082C630.975 210.054 629.265 210.54 627.393 210.54ZM620.697 201.486V198.21H634.071V201.486H620.697ZM656.76 210.54C654.864 210.54 653.274 210.09 651.99 209.19C650.706 208.29 649.74 207.066 649.092 205.518C648.444 203.958 648.12 202.212 648.12 200.28C648.12 198.324 648.444 196.572 649.092 195.024C649.74 193.476 650.688 192.258 651.936 191.37C653.196 190.47 654.75 190.02 656.598 190.02C658.434 190.02 660.024 190.47 661.368 191.37C662.724 192.258 663.774 193.476 664.518 195.024C665.262 196.56 665.634 198.312 665.634 200.28C665.634 202.224 665.268 203.97 664.536 205.518C663.804 207.066 662.772 208.29 661.44 209.19C660.108 210.09 658.548 210.54 656.76 210.54ZM647.382 210V184.08H651.756V196.356H651.216V210H647.382ZM656.094 206.652C657.222 206.652 658.152 206.37 658.884 205.806C659.616 205.242 660.156 204.48 660.504 203.52C660.864 202.548 661.044 201.468 661.044 200.28C661.044 199.104 660.864 198.036 660.504 197.076C660.144 196.104 659.586 195.336 658.83 194.772C658.074 194.196 657.114 193.908 655.95 193.908C654.846 193.908 653.946 194.178 653.25 194.718C652.554 195.246 652.038 195.99 651.702 196.95C651.378 197.898 651.216 199.008 651.216 200.28C651.216 201.54 651.378 202.65 651.702 203.61C652.038 204.57 652.56 205.32 653.268 205.86C653.988 206.388 654.93 206.652 656.094 206.652ZM678.44 210.54C676.472 210.54 674.744 210.114 673.256 209.262C671.768 208.41 670.604 207.228 669.764 205.716C668.936 204.204 668.522 202.464 668.522 200.496C668.522 198.372 668.93 196.53 669.746 194.97C670.562 193.398 671.696 192.18 673.148 191.316C674.6 190.452 676.28 190.02 678.188 190.02C680.204 190.02 681.914 190.494 683.318 191.442C684.734 192.378 685.784 193.704 686.468 195.42C687.152 197.136 687.41 199.158 687.242 201.486H682.94V199.902C682.928 197.79 682.556 196.248 681.824 195.276C681.092 194.304 679.94 193.818 678.368 193.818C676.592 193.818 675.272 194.37 674.408 195.474C673.544 196.566 673.112 198.168 673.112 200.28C673.112 202.248 673.544 203.772 674.408 204.852C675.272 205.932 676.532 206.472 678.188 206.472C679.256 206.472 680.174 206.238 680.942 205.77C681.722 205.29 682.322 204.6 682.742 203.7L687.026 204.996C686.282 206.748 685.13 208.11 683.57 209.082C682.022 210.054 680.312 210.54 678.44 210.54ZM671.744 201.486V198.21H685.118V201.486H671.744ZM696.343 210.54C694.939 210.54 693.751 210.276 692.779 209.748C691.807 209.208 691.069 208.494 690.565 207.606C690.073 206.718 689.827 205.74 689.827 204.672C689.827 203.736 689.983 202.896 690.295 202.152C690.607 201.396 691.087 200.748 691.735 200.208C692.383 199.656 693.223 199.206 694.255 198.858C695.035 198.606 695.947 198.378 696.991 198.174C698.047 197.97 699.187 197.784 700.411 197.616C701.647 197.436 702.937 197.244 704.281 197.04L702.733 197.922C702.745 196.578 702.445 195.588 701.833 194.952C701.221 194.316 700.189 193.998 698.737 193.998C697.861 193.998 697.015 194.202 696.199 194.61C695.383 195.018 694.813 195.72 694.489 196.716L690.529 195.474C691.009 193.83 691.921 192.51 693.265 191.514C694.621 190.518 696.445 190.02 698.737 190.02C700.465 190.02 701.983 190.302 703.291 190.866C704.611 191.43 705.589 192.354 706.225 193.638C706.573 194.322 706.783 195.024 706.855 195.744C706.927 196.452 706.963 197.226 706.963 198.066V210H703.165V205.788L703.795 206.472C702.919 207.876 701.893 208.908 700.717 209.568C699.553 210.216 698.095 210.54 696.343 210.54ZM697.207 207.084C698.191 207.084 699.031 206.91 699.727 206.562C700.423 206.214 700.975 205.788 701.383 205.284C701.803 204.78 702.085 204.306 702.229 203.862C702.457 203.31 702.583 202.68 702.607 201.972C702.643 201.252 702.661 200.67 702.661 200.226L703.993 200.622C702.685 200.826 701.563 201.006 700.627 201.162C699.691 201.318 698.887 201.468 698.215 201.612C697.543 201.744 696.949 201.894 696.433 202.062C695.929 202.242 695.503 202.452 695.155 202.692C694.807 202.932 694.537 203.208 694.345 203.52C694.165 203.832 694.075 204.198 694.075 204.618C694.075 205.098 694.195 205.524 694.435 205.896C694.675 206.256 695.023 206.544 695.479 206.76C695.947 206.976 696.523 207.084 697.207 207.084ZM723.043 210C721.759 210.24 720.499 210.342 719.263 210.306C718.039 210.282 716.941 210.06 715.969 209.64C714.997 209.208 714.259 208.53 713.755 207.606C713.311 206.766 713.077 205.908 713.053 205.032C713.029 204.156 713.017 203.166 713.017 202.062V185.16H717.337V201.81C717.337 202.59 717.343 203.274 717.355 203.862C717.379 204.45 717.505 204.93 717.733 205.302C718.165 206.022 718.855 206.424 719.803 206.508C720.751 206.592 721.831 206.544 723.043 206.364V210ZM709.489 193.962V190.56H723.043V193.962H709.489Z" fill="white"/>
<path d="M540.48 265V218.92H568.224V226.632H548.192V238.12H564.384V245.8H548.192V265H540.48ZM588.307 265.96C584.851 265.96 581.832 265.181 579.251 263.624C576.669 262.067 574.664 259.923 573.235 257.192C571.827 254.44 571.123 251.283 571.123 247.72C571.123 244.093 571.848 240.915 573.299 238.184C574.749 235.453 576.765 233.32 579.347 231.784C581.928 230.248 584.915 229.48 588.307 229.48C591.784 229.48 594.813 230.259 597.395 231.816C599.976 233.373 601.981 235.528 603.411 238.28C604.84 241.011 605.555 244.157 605.555 247.72C605.555 251.304 604.829 254.472 603.379 257.224C601.949 259.955 599.944 262.099 597.363 263.656C594.781 265.192 591.763 265.96 588.307 265.96ZM588.307 258.728C591.379 258.728 593.661 257.704 595.155 255.656C596.648 253.608 597.395 250.963 597.395 247.72C597.395 244.371 596.637 241.704 595.123 239.72C593.608 237.715 591.336 236.712 588.307 236.712C586.237 236.712 584.531 237.181 583.187 238.12C581.864 239.037 580.883 240.328 580.243 241.992C579.603 243.635 579.283 245.544 579.283 247.72C579.283 251.069 580.04 253.747 581.555 255.752C583.091 257.736 585.341 258.728 588.307 258.728ZM613.245 265V217.96H620.957V265H613.245ZM631.183 265V217.96H638.895V265H631.183ZM663.744 265.96C660.288 265.96 657.269 265.181 654.688 263.624C652.107 262.067 650.101 259.923 648.672 257.192C647.264 254.44 646.56 251.283 646.56 247.72C646.56 244.093 647.285 240.915 648.736 238.184C650.187 235.453 652.203 233.32 654.784 231.784C657.365 230.248 660.352 229.48 663.744 229.48C667.221 229.48 670.251 230.259 672.832 231.816C675.413 233.373 677.419 235.528 678.848 238.28C680.277 241.011 680.992 244.157 680.992 247.72C680.992 251.304 680.267 254.472 678.816 257.224C677.387 259.955 675.381 262.099 672.8 263.656C670.219 265.192 667.2 265.96 663.744 265.96ZM663.744 258.728C666.816 258.728 669.099 257.704 670.592 255.656C672.085 253.608 672.832 250.963 672.832 247.72C672.832 244.371 672.075 241.704 670.56 239.72C669.045 237.715 666.773 236.712 663.744 236.712C661.675 236.712 659.968 237.181 658.624 238.12C657.301 239.037 656.32 240.328 655.68 241.992C655.04 243.635 654.72 245.544 654.72 247.72C654.72 251.069 655.477 253.747 656.992 255.752C658.528 257.736 660.779 258.728 663.744 258.728ZM694.153 265L683.593 230.376L691.145 230.44L697.897 252.616L704.745 230.44H711.241L718.057 252.616L724.841 230.44H732.393L721.833 265H715.817L707.977 241.224L700.169 265H694.153ZM771.236 265C768.953 265.427 766.713 265.608 764.516 265.544C762.34 265.501 760.388 265.107 758.66 264.36C756.932 263.592 755.62 262.387 754.724 260.744C753.935 259.251 753.519 257.725 753.476 256.168C753.433 254.611 753.412 252.851 753.412 250.888V220.84H761.092V250.44C761.092 251.827 761.103 253.043 761.124 254.088C761.167 255.133 761.391 255.987 761.796 256.648C762.564 257.928 763.791 258.643 765.476 258.792C767.161 258.941 769.081 258.856 771.236 258.536V265ZM747.14 236.488V230.44H771.236V236.488H747.14ZM802.572 265V248.36C802.572 247.272 802.497 246.067 802.348 244.744C802.198 243.421 801.846 242.152 801.292 240.936C800.758 239.699 799.948 238.685 798.86 237.896C797.793 237.107 796.342 236.712 794.508 236.712C793.526 236.712 792.556 236.872 791.596 237.192C790.636 237.512 789.761 238.067 788.972 238.856C788.204 239.624 787.585 240.691 787.116 242.056C786.646 243.4 786.412 245.128 786.412 247.24L781.836 245.288C781.836 242.344 782.401 239.677 783.532 237.288C784.684 234.899 786.369 233 788.588 231.592C790.806 230.163 793.537 229.448 796.78 229.448C799.34 229.448 801.452 229.875 803.116 230.728C804.78 231.581 806.102 232.669 807.083 233.992C808.065 235.315 808.79 236.723 809.26 238.216C809.729 239.709 810.028 241.128 810.156 242.472C810.305 243.795 810.38 244.872 810.38 245.704V265H802.572ZM778.604 265V218.92H785.484V243.176H786.412V265H778.604ZM834.442 265.96C830.943 265.96 827.871 265.203 825.226 263.688C822.581 262.173 820.511 260.072 819.018 257.384C817.546 254.696 816.81 251.603 816.81 248.104C816.81 244.328 817.535 241.053 818.986 238.28C820.437 235.485 822.453 233.32 825.034 231.784C827.615 230.248 830.602 229.48 833.994 229.48C837.578 229.48 840.618 230.323 843.114 232.008C845.631 233.672 847.498 236.029 848.714 239.08C849.93 242.131 850.389 245.725 850.09 249.864H842.442V247.048C842.421 243.293 841.759 240.552 840.458 238.824C839.157 237.096 837.109 236.232 834.314 236.232C831.157 236.232 828.81 237.213 827.274 239.176C825.738 241.117 824.97 243.965 824.97 247.72C824.97 251.219 825.738 253.928 827.274 255.848C828.81 257.768 831.05 258.728 833.994 258.728C835.893 258.728 837.525 258.312 838.89 257.48C840.277 256.627 841.343 255.4 842.09 253.8L849.706 256.104C848.383 259.219 846.335 261.64 843.562 263.368C840.81 265.096 837.77 265.96 834.442 265.96ZM822.538 249.864V244.04H846.314V249.864H822.538ZM870.683 265V218.92H878.395V265H870.683ZM929.484 265V244.008C929.484 241.64 928.897 239.795 927.724 238.472C926.551 237.128 924.961 236.456 922.956 236.456C921.719 236.456 920.609 236.744 919.628 237.32C918.647 237.875 917.868 238.707 917.292 239.816C916.716 240.904 916.428 242.205 916.428 243.72L913.004 241.704C912.983 239.315 913.516 237.213 914.604 235.4C915.713 233.565 917.207 232.136 919.084 231.112C920.961 230.088 923.052 229.576 925.356 229.576C929.175 229.576 932.097 230.728 934.124 233.032C936.172 235.315 937.196 238.323 937.196 242.056V265H929.484ZM887.916 265V230.44H894.732V241.16H895.692V265H887.916ZM908.748 265V244.104C908.748 241.693 908.161 239.816 906.988 238.472C905.815 237.128 904.215 236.456 902.188 236.456C900.225 236.456 898.647 237.128 897.452 238.472C896.279 239.816 895.692 241.565 895.692 243.72L892.236 241.416C892.236 239.176 892.791 237.16 893.9 235.368C895.009 233.576 896.503 232.168 898.38 231.144C900.279 230.099 902.401 229.576 904.748 229.576C907.329 229.576 909.484 230.131 911.212 231.24C912.961 232.328 914.263 233.821 915.116 235.72C915.991 237.597 916.428 239.72 916.428 242.088V265H908.748ZM962.151 265.96C958.78 265.96 955.953 265.16 953.671 263.56C951.388 261.96 949.671 259.784 948.519 257.032C947.367 254.259 946.791 251.155 946.791 247.72C946.791 244.243 947.367 241.128 948.519 238.376C949.671 235.624 951.356 233.459 953.575 231.88C955.815 230.28 958.577 229.48 961.863 229.48C965.127 229.48 967.953 230.28 970.343 231.88C972.753 233.459 974.62 235.624 975.943 238.376C977.265 241.107 977.927 244.221 977.927 247.72C977.927 251.176 977.276 254.28 975.975 257.032C974.673 259.784 972.839 261.96 970.471 263.56C968.103 265.16 965.329 265.96 962.151 265.96ZM945.479 280.36V230.44H952.295V254.696H953.255V280.36H945.479ZM960.967 259.048C962.972 259.048 964.625 258.547 965.927 257.544C967.228 256.541 968.188 255.187 968.807 253.48C969.447 251.752 969.767 249.832 969.767 247.72C969.767 245.629 969.447 243.731 968.807 242.024C968.167 240.296 967.175 238.931 965.831 237.928C964.487 236.904 962.78 236.392 960.711 236.392C958.748 236.392 957.148 236.872 955.911 237.832C954.673 238.771 953.756 240.093 953.159 241.8C952.583 243.485 952.295 245.459 952.295 247.72C952.295 249.96 952.583 251.933 953.159 253.64C953.756 255.347 954.684 256.68 955.943 257.64C957.223 258.579 958.897 259.048 960.967 259.048ZM997.94 265.992C995.38 265.992 993.268 265.565 991.604 264.712C989.94 263.859 988.617 262.771 987.636 261.448C986.655 260.125 985.929 258.717 985.46 257.224C984.991 255.731 984.681 254.323 984.532 253C984.404 251.656 984.34 250.568 984.34 249.736V230.44H992.148V247.08C992.148 248.147 992.223 249.352 992.372 250.696C992.521 252.019 992.863 253.299 993.396 254.536C993.951 255.752 994.761 256.755 995.828 257.544C996.916 258.333 998.377 258.728 1000.21 258.728C1001.19 258.728 1002.16 258.568 1003.12 258.248C1004.08 257.928 1004.95 257.384 1005.72 256.616C1006.51 255.827 1007.13 254.749 1007.6 253.384C1008.07 252.019 1008.31 250.291 1008.31 248.2L1012.88 250.152C1012.88 253.096 1012.31 255.763 1011.16 258.152C1010.03 260.541 1008.35 262.451 1006.13 263.88C1003.91 265.288 1001.18 265.992 997.94 265.992ZM1009.24 265V254.28H1008.31V230.44H1016.05V265H1009.24ZM1025.68 265V217.96H1033.39V265H1025.68ZM1039.78 265V263.944L1058.08 237.192H1041.64V230.44H1070.08V231.528L1051.84 258.248H1069.32V265H1039.78Z" fill="white"/>
<path d="M0 9.99999C0 4.47715 4.47715 0 10 0H440C445.523 0 450 4.47715 450 10V440C450 445.523 445.523 450 440 450H151.209C145.605 450 141.035 445.423 140.695 439.83C139.41 418.711 132.943 370.034 101 345.5C69.6815 321.445 28.1117 314.333 9.59957 312.292C4.24807 311.701 0 307.235 0 301.851V9.99999Z" fill="#9C9393"/>
<mask id="mask2_484_1564" style="mask-type:alpha" maskUnits="userSpaceOnUse" x="0" y="0" width="450" height="450">
<path d="M0 9.99999C0 4.47715 4.47715 0 10 0H440C445.523 0 450 4.47715 450 10V440C450 445.523 445.523 450 440 450H151.209C145.605 450 141.035 445.423 140.695 439.83C139.41 418.711 132.943 370.034 101 345.5C69.6815 321.445 28.1117 314.333 9.59957 312.292C4.24807 311.701 0 307.235 0 301.851V9.99999Z" fill="#9C9393"/>
</mask>
<g mask="url(#mask2_484_1564)">
<path d="M683.999 246C683.999 375.787 579.061 481 449.612 481C173 481 208.5 384 139.5 318.5C84.4999 263 -13.5137 266.859 18.5103 169.116C40.4999 102 134.5 154 179.5 63C227.466 -34 433.5 85 450 11C579.449 11 683.999 116.213 683.999 246Z" fill="#716161"/>
<ellipse cx="453.5" cy="225" rx="143.5" ry="144" fill="black"/>
<circle cx="453" cy="225" r="67" stroke="white" stroke-width="10"/>
</g>
<path d="M122.987 438.688C124.192 444.641 119.579 450 113.506 450H10C4.47715 450 0 445.523 0 440V344.145C0 338.195 5.15544 333.615 11.0225 334.607C31.2118 338.021 73.8953 347.511 94 369C110.659 386.806 119.399 420.956 122.987 438.688Z" fill="black"/>
<mask id="mask3_484_1564" style="mask-type:alpha" maskUnits="userSpaceOnUse" x="0" y="334" width="124" height="116">
<path d="M122.987 438.688C124.192 444.641 119.579 450 113.506 450H10C4.47715 450 0 445.523 0 440V344.145C0 338.195 5.15544 333.615 11.0225 334.607C31.2118 338.021 73.8953 347.511 94 369C110.659 386.806 119.399 420.956 122.987 438.688Z" fill="black"/>
</mask>
<g mask="url(#mask3_484_1564)">
<circle cx="-10" cy="464" r="69" stroke="white" stroke-width="8"/>
</g>
</svg>
