<svg width="80" height="80" viewBox="0 0 80 80" fill="none" xmlns="http://www.w3.org/2000/svg">
<circle cx="40" cy="40" r="40" fill="white"/>
<path d="M40 0C17.9089 0 0 17.9086 0 40C0 62.0914 17.9089 80 40 80C62.0911 80 80 62.0914 80 40C80 17.9086 62.0911 0 40 0ZM53.825 42.1203L33.825 54.6203C33.4464 54.8567 33.0115 54.9874 32.5654 54.999C32.1193 55.0106 31.6781 54.9026 31.2878 54.6862C30.8975 54.47 30.5723 54.1532 30.3458 53.7687C30.1193 53.3843 29.9999 52.9462 30 52.5V27.5C30 26.5906 30.4931 25.7544 31.2878 25.3137C31.6779 25.0966 32.1191 24.9881 32.5654 24.9997C33.0117 25.0113 33.4467 25.1425 33.825 25.3797L53.825 37.8797C54.5556 38.3375 55 39.1383 55 40C55 40.8617 54.5556 41.6627 53.825 42.1203Z" fill="black"/>
</svg>
