<svg width="20" height="20" viewBox="0 0 20 20" fill="none" xmlns="http://www.w3.org/2000/svg">
<path d="M5.33333 1.33333C3.12433 1.33333 1.33333 3.12433 1.33333 5.33333V14.6667C1.33333 16.8757 3.12433 18.6667 5.33333 18.6667H14.6667C16.8757 18.6667 18.6667 16.8757 18.6667 14.6667V10C18.6667 9.82319 18.7369 9.65362 18.8619 9.5286C18.987 9.40357 19.1565 9.33333 19.3333 9.33333C19.5101 9.33333 19.6797 9.40357 19.8047 9.5286C19.9298 9.65362 20 9.82319 20 10V14.6667C20 17.6123 17.6123 20 14.6667 20H5.33333C2.38767 20 0 17.6123 0 14.6667V5.33333C0 2.38767 2.38767 0 5.33333 0H10C10.1768 0 10.3464 0.0702379 10.4714 0.195262C10.5964 0.320286 10.6667 0.489856 10.6667 0.666667C10.6667 0.843478 10.5964 1.01305 10.4714 1.13807C10.3464 1.2631 10.1768 1.33333 10 1.33333H5.33333Z" fill="black"/>
<path d="M10.9699 5.07033C10.8682 5.01954 10.7553 4.99557 10.6418 5.0007C10.5283 5.00583 10.418 5.03988 10.3213 5.09962C10.2247 5.15937 10.1449 5.24282 10.0896 5.34207C10.0343 5.44131 10.0052 5.55304 10.0052 5.66667V10.558C9.54842 10.3413 9.03362 10.2789 8.53827 10.38C8.04293 10.4812 7.59385 10.7405 7.25861 11.119C6.92337 11.4974 6.72012 11.9745 6.67944 12.4784C6.63876 12.9824 6.76286 13.4859 7.03306 13.9132C7.30325 14.3405 7.70492 14.6685 8.17763 14.8478C8.65033 15.0271 9.16849 15.0481 9.65411 14.9075C10.1397 14.7669 10.5666 14.4723 10.8703 14.0682C11.1741 13.6641 11.3384 13.1722 11.3385 12.6667V6.74533L12.3739 7.263C12.5318 7.34041 12.714 7.35224 12.8807 7.29593C13.0473 7.23961 13.1849 7.11971 13.2636 6.96235C13.3422 6.805 13.3555 6.62294 13.3005 6.45585C13.2454 6.28876 13.1266 6.15019 12.9699 6.07033L10.9699 5.07033ZM20.0052 3.66667C20.0052 3.84348 19.935 4.01305 19.8099 4.13807C19.6849 4.2631 19.5154 4.33333 19.3385 4.33333H17.0052V6.66667C17.0052 6.84348 16.935 7.01305 16.8099 7.13807C16.6849 7.2631 16.5154 7.33333 16.3385 7.33333C16.1617 7.33333 15.9922 7.2631 15.8671 7.13807C15.7421 7.01305 15.6719 6.84348 15.6719 6.66667V4.33333H13.3385C13.1617 4.33333 12.9922 4.2631 12.8671 4.13807C12.7421 4.01305 12.6719 3.84348 12.6719 3.66667C12.6719 3.48986 12.7421 3.32029 12.8671 3.19526C12.9922 3.07024 13.1617 3 13.3385 3H15.6719V0.666667C15.6719 0.489856 15.7421 0.320286 15.8671 0.195262C15.9922 0.0702379 16.1617 0 16.3385 0C16.5154 0 16.6849 0.0702379 16.8099 0.195262C16.935 0.320286 17.0052 0.489856 17.0052 0.666667V3H19.3385C19.5154 3 19.6849 3.07024 19.8099 3.19526C19.935 3.32029 20.0052 3.48986 20.0052 3.66667Z" fill="black"/>
</svg>
