<svg width="31" height="30" viewBox="0 0 31 30" fill="none" xmlns="http://www.w3.org/2000/svg">
<path d="M17.8141 19.9611C17.6766 19.9613 17.5407 19.9242 17.4161 19.8523C17.2915 19.7804 17.1813 19.6756 17.0934 19.5452L15.9678 17.8804V28.8444C15.9678 29.1509 15.8691 29.4448 15.6932 29.6615C15.5174 29.8783 15.2789 30 15.0303 30C14.7816 30 14.5432 29.8783 14.3673 29.6615C14.1915 29.4448 14.0927 29.1509 14.0927 28.8444V17.8804L12.9672 19.5452C12.8887 19.6629 12.792 19.7602 12.6828 19.8317C12.5736 19.9031 12.4541 19.9473 12.331 19.9615C12.2079 19.9758 12.0838 19.96 11.9657 19.9149C11.8476 19.8698 11.7379 19.7963 11.6429 19.6988C11.548 19.6013 11.4696 19.4815 11.4123 19.3465C11.355 19.2115 11.32 19.0638 11.3092 18.9121C11.2984 18.7603 11.312 18.6074 11.3494 18.4621C11.3867 18.3169 11.4469 18.1821 11.5267 18.0657L14.3101 13.949C14.3981 13.8188 14.5082 13.7141 14.6327 13.6423C14.7571 13.5704 14.8929 13.5331 15.0303 13.5331C15.1678 13.5331 15.3036 13.5704 15.428 13.6423C15.5525 13.7141 15.6626 13.8188 15.7506 13.949L18.534 18.0657C18.6481 18.2344 18.7208 18.4396 18.7436 18.6574C18.7664 18.8752 18.7384 19.0965 18.6629 19.2953C18.5874 19.4942 18.4674 19.6625 18.3171 19.7804C18.1668 19.8983 17.9924 19.9609 17.8143 19.9611H17.8141ZM28.532 12.4914C27.727 11.1843 26.655 10.1638 25.4255 9.53412C25.3825 7.50561 24.8208 5.54566 23.8206 3.93386C22.6626 2.07549 20.9497 0.767887 18.9973 0.251852C14.2345 -1.00664 9.10825 2.57491 7.57013 8.23584L7.40371 8.84843C5.44117 8.86202 3.56307 9.83412 2.18109 11.5516C0.799112 13.2692 0.0260183 15.592 0.0312766 18.0109C0.036535 20.4298 0.819716 22.7475 2.20914 24.4558C3.59857 26.1642 5.48087 27.1239 7.44344 27.1245H11.7344C11.983 27.1245 12.2215 27.0028 12.3973 26.786C12.5731 26.5693 12.6719 26.2754 12.6719 25.9689C12.6719 25.6625 12.5731 25.3685 12.3973 25.1518C12.2215 24.9351 11.983 24.8134 11.7344 24.8134H7.44344C5.97441 24.8134 4.56555 24.0941 3.52679 22.8138C2.48802 21.5335 1.90446 19.797 1.90446 17.9864C1.90446 16.1758 2.48802 14.4393 3.52679 13.159C4.56555 11.8787 5.97441 11.1594 7.44344 11.1594H8.07852C8.27508 11.1594 8.46667 11.0833 8.6262 10.9418C8.78574 10.8002 8.90515 10.6005 8.96756 10.3708L9.34844 8.96962C10.593 4.38887 14.7453 1.49178 18.6046 2.51171C21.698 3.32914 23.7286 6.5201 23.5424 10.2717C23.5295 10.5314 23.5881 10.7889 23.7086 11.0024C23.8291 11.216 24.0046 11.3732 24.2066 11.4485C26.5319 12.3145 28.1561 15.003 28.1561 17.9864C28.1545 19.7964 27.5704 21.5317 26.532 22.8115C25.4936 24.0914 24.0857 24.8113 22.6171 24.8134H18.3262C18.0776 24.8134 17.8391 24.9351 17.6633 25.1518C17.4874 25.3685 17.3887 25.6625 17.3887 25.9689C17.3887 26.2754 17.4874 26.5693 17.6633 26.786C17.8391 27.0028 18.0776 27.1245 18.3262 27.1245H22.6171C24.5828 27.1218 26.4673 26.1581 27.8572 24.445C29.2472 22.7318 30.029 20.4091 30.0312 17.9864C30.0345 16.0015 29.5077 14.0705 28.532 12.4914Z" fill="black"/>
</svg>
