<svg width="30" height="30" viewBox="0 0 30 30" fill="none" xmlns="http://www.w3.org/2000/svg">
<path d="M0 1.09735C0 0.806312 0.110205 0.527198 0.30637 0.321405C0.502535 0.115613 0.768593 0 1.04601 0H28.9397C29.2171 0 29.4832 0.115613 29.6793 0.321405C29.8755 0.527198 29.9857 0.806312 29.9857 1.09735C29.9857 1.38838 29.8755 1.6675 29.6793 1.87329C29.4832 2.07908 29.2171 2.19469 28.9397 2.19469H1.04601C0.768593 2.19469 0.502535 2.07908 0.30637 1.87329C0.110205 1.6675 0 1.38838 0 1.09735ZM1.04601 10.9735H13.5982C13.8756 10.9735 14.1416 10.8579 14.3378 10.6521C14.534 10.4463 14.6442 10.1672 14.6442 9.87612C14.6442 9.58509 14.534 9.30597 14.3378 9.10018C14.1416 8.89439 13.8756 8.77877 13.5982 8.77877H1.04601C0.768593 8.77877 0.502535 8.89439 0.30637 9.10018C0.110205 9.30597 0 9.58509 0 9.87612C0 10.1672 0.110205 10.4463 0.30637 10.6521C0.502535 10.8579 0.768593 10.9735 1.04601 10.9735ZM9.41411 17.5575H1.04601C0.768593 17.5575 0.502535 17.6732 0.30637 17.879C0.110205 18.0847 0 18.3639 0 18.6549C0 18.9459 0.110205 19.225 0.30637 19.4308C0.502535 19.6366 0.768593 19.7522 1.04601 19.7522H9.41411C9.69153 19.7522 9.95759 19.6366 10.1538 19.4308C10.3499 19.225 10.4601 18.9459 10.4601 18.6549C10.4601 18.3639 10.3499 18.0847 10.1538 17.879C9.95759 17.6732 9.69153 17.5575 9.41411 17.5575ZM6.62474 26.3363H1.04601C0.768593 26.3363 0.502535 26.4519 0.30637 26.6577C0.110205 26.8635 0 27.1426 0 27.4337C0 27.7247 0.110205 28.0038 0.30637 28.2096C0.502535 28.4154 0.768593 28.531 1.04601 28.531H6.62474C6.90216 28.531 7.16822 28.4154 7.36439 28.2096C7.56055 28.0038 7.67076 27.7247 7.67076 27.4337C7.67076 27.1426 7.56055 26.8635 7.36439 26.6577C7.16822 26.4519 6.90216 26.3363 6.62474 26.3363ZM28.7528 7.94333C29.1853 8.33575 29.5226 8.83042 29.7369 9.38653C29.9513 9.94264 30.0366 10.5442 29.9857 11.1417V23.59C29.9857 24.4371 29.7462 25.2652 29.2976 25.9695C28.849 26.6738 28.2113 27.2227 27.4653 27.5468C26.7193 27.8709 25.8984 27.9556 25.1065 27.7902C24.3146 27.6248 23.5872 27.2168 23.0164 26.6178C22.4455 26.0187 22.0568 25.2555 21.8995 24.4246C21.7421 23.5938 21.8232 22.7327 22.1324 21.9501C22.4415 21.1676 22.965 20.4989 23.6365 20.0285C24.308 19.5581 25.0974 19.3072 25.9048 19.3075C26.6033 19.3123 27.2886 19.5075 27.8937 19.8737V14.8595L18.8561 17.4449V25.7116C18.8572 26.5588 18.6187 27.3874 18.1708 28.0924C17.723 28.7975 17.0858 29.3473 16.34 29.6723C15.5941 29.9974 14.7731 30.083 13.9809 29.9184C13.1887 29.7538 12.4607 29.3464 11.8893 28.7477C11.3178 28.149 10.9285 27.386 10.7705 26.5551C10.6125 25.7242 10.693 24.8628 11.0019 24.0799C11.3107 23.297 11.8339 22.6278 12.5053 22.157C13.1768 21.6862 13.9663 21.4348 14.7739 21.4348C15.473 21.4393 16.159 21.635 16.7641 22.0025V12.8799C16.7425 12.0515 16.9923 11.2403 17.4717 10.5817C17.9511 9.92298 18.6312 9.45656 19.3986 9.26014L25.4697 7.52341C26.01 7.31822 26.5887 7.24932 27.159 7.32227C27.7294 7.39522 28.2753 7.60797 28.7528 7.94333ZM16.7585 25.7116C16.7585 25.2986 16.6418 24.895 16.4231 24.5516C16.2044 24.2082 15.8936 23.9406 15.5299 23.7826C15.1663 23.6246 14.7661 23.5832 14.38 23.6638C13.994 23.7444 13.6393 23.9432 13.361 24.2352C13.0827 24.5272 12.8931 24.8992 12.8163 25.3042C12.7395 25.7092 12.7789 26.1291 12.9296 26.5106C13.0802 26.8921 13.3353 27.2182 13.6626 27.4476C13.9899 27.677 14.3747 27.7995 14.7683 27.7995C15.0301 27.8 15.2894 27.7465 15.5314 27.6418C15.7734 27.5372 15.9934 27.3835 16.1788 27.1896C16.3642 26.9957 16.5113 26.7653 16.6117 26.5117C16.7121 26.2581 16.7639 25.9862 16.7641 25.7116H16.7585ZM27.8881 23.59C27.8881 23.1768 27.7712 22.7728 27.5522 22.4293C27.3332 22.0858 27.0219 21.8182 26.6579 21.6604C26.2938 21.5026 25.8933 21.4617 25.507 21.5428C25.1208 21.624 24.7662 21.8235 24.4881 22.1163C24.2101 22.409 24.0211 22.7817 23.9451 23.1872C23.869 23.5927 23.9095 24.0127 24.0612 24.3941C24.2129 24.7755 24.469 25.1011 24.7972 25.3296C25.1255 25.5581 25.5109 25.6794 25.9048 25.6779C26.4323 25.6771 26.938 25.4569 27.3108 25.0654C27.6837 24.674 27.8933 24.1434 27.8937 23.59H27.8881ZM27.8881 11.1417C27.9206 10.8827 27.9009 10.6194 27.8303 10.3689C27.7597 10.1183 27.6397 9.88616 27.478 9.68738C27.2505 9.57312 27.0027 9.50994 26.7505 9.50188C26.4984 9.49382 26.2474 9.54105 26.0136 9.64056L19.9495 11.3773C19.6273 11.4516 19.3406 11.6434 19.1404 11.9185C18.9403 12.1936 18.8395 12.5343 18.8561 12.8799V15.1697L27.8937 12.5844L27.8881 11.1417Z" fill="black"/>
</svg>
