<svg width="30" height="30" viewBox="0 0 30 30" fill="none" xmlns="http://www.w3.org/2000/svg">
<path d="M29.6498 12.7537L15.6772 0.259916C15.2895 -0.0866387 14.7103 -0.0866387 14.3227 0.259916L0.35018 12.7537C-0.0764759 13.1352 -0.119216 13.7974 0.254756 14.2329C0.628727 14.6681 1.27796 14.7118 1.70461 14.3301L2.7865 13.3628V28.9519C2.7865 29.5307 3.24644 30 3.81389 30H11.6001H18.3998H26.186C26.7534 30 27.2134 29.5307 27.2134 28.9519V13.3629L28.2953 14.3303C28.4903 14.5046 28.7318 14.5903 28.972 14.5903C29.2577 14.5903 29.542 14.4694 29.745 14.233C30.1193 13.7974 30.0765 13.1353 29.6498 12.7537ZM12.6275 27.9037V19.2695H17.3724V27.9038L12.6275 27.9037ZM25.1588 11.5336V27.9037H19.4274V18.2213C19.4274 17.6425 18.9673 17.1732 18.4 17.1732H11.6003C11.0329 17.1732 10.5729 17.6425 10.5729 18.2213V27.9038H4.84137V11.5336C4.84137 11.531 4.84104 11.5284 4.84104 11.5258L15 2.44188L25.1591 11.5258C25.1592 11.5285 25.1588 11.531 25.1588 11.5336Z" fill="black"/>
<path d="M12.7031 9.82157C12.7031 10.4005 13.1631 10.8697 13.7305 10.8697H16.2785C16.8458 10.8697 17.3058 10.4005 17.3058 9.82157C17.3058 9.24267 16.8458 8.77344 16.2785 8.77344H13.7305C13.1632 8.77344 12.7031 9.24267 12.7031 9.82157Z" fill="black"/>
</svg>
