<svg width="30" height="30" viewBox="0 0 30 30" fill="none" xmlns="http://www.w3.org/2000/svg">
<path d="M0 19.776L3.9051 19.0456L5.57807 29.2695L1.67262 30L0 19.776ZM7.01371 27.1708C7.64426 26.6086 8.45423 26.3299 9.27311 26.3933L16.9824 26.9835H17.0098C18.4898 26.9848 19.9326 26.4878 21.1336 25.5631L30 16.2866C29.2588 15.6724 28.2208 15.6794 27.4868 16.3036C27.4838 16.306 27.4809 16.3084 27.478 16.311L23.0492 19.8521C23.1697 20.1433 23.2566 20.4492 23.3079 20.7629C23.3272 20.8807 23.3019 21.0018 23.2376 21.0997C23.1734 21.1976 23.0754 21.2642 22.9652 21.2849L15.8653 22.6123C15.8077 22.6232 15.7485 22.6211 15.6917 22.6062C15.6349 22.5913 15.5816 22.5639 15.5352 22.5257C15.4888 22.4876 15.4503 22.4395 15.4222 22.3846C15.3942 22.3297 15.3771 22.2692 15.3721 22.2068C15.363 22.0944 15.3936 21.9824 15.458 21.893C15.5223 21.8035 15.6157 21.7432 15.7197 21.7238L22.3734 20.4793C21.9266 19.0561 20.5753 18.1947 19.1921 18.4514L14.8728 19.259C14.0359 19.4143 13.177 19.3665 12.3596 19.119L11.8767 18.9716C9.44527 18.2247 6.82692 18.9725 5.06784 20.9158L6.20668 27.8745L7.01371 27.1708ZM10.4467 0.527268L8.68548 3.60782H11.546L10.4467 0.527268ZM8.82221 4.50978L14.4961 11.8742L11.8678 4.50978H8.82221ZM18.8662 4.50978H12.7708L15.8306 13.0845L18.8662 4.50978ZM22.9334 3.60782L21.1756 0.533506L20.0874 3.60782H22.9334ZM19.768 4.50978L17.1627 11.8693L22.7999 4.50978H19.768ZM14.8682 0H11.1481L12.2628 3.12279L14.8682 0ZM20.4756 0H16.7575L19.3767 3.1046L20.4756 0ZM18.6962 3.60782L15.8112 0.187907L12.9575 3.60782H18.6962Z" fill="black"/>
</svg>
