<svg version="1.1" xmlns="http://www.w3.org/2000/svg" xmlns:xlink="http://www.w3.org/1999/xlink" width="24px" height="24px" viewBox="0,0,256,256"><g fill="#00a0f1" fill-rule="nonzero" stroke="none" stroke-width="1" stroke-linecap="butt" stroke-linejoin="miter" stroke-miterlimit="10" stroke-dasharray="" stroke-dashoffset="0" font-family="none" font-size="none" style="mix-blend-mode: normal"><g transform="scale(10.66667,10.66667)"><path d="M15.5,5.64l2.86,2.86c0.293,0.293 0.293,0.768 0,1.061l-11.393,11.392c-0.098,0.098 -0.222,0.166 -0.357,0.197l-3.7,0.84c-0.06,0.01 -0.11,0.02 -0.17,0.02c-0.19,0 -0.38,-0.08 -0.53,-0.22c-0.18,-0.19 -0.25,-0.45 -0.2,-0.7l0.839,-3.696c0.031,-0.138 0.101,-0.264 0.201,-0.364l11.39,-11.39c0.293,-0.293 0.767,-0.293 1.06,0zM21.99,5.52c0.03,0.24 -0.05,0.47 -0.22,0.63l-1.29,1.29c-0.293,0.293 -0.768,0.293 -1.061,0l-2.859,-2.86c-0.293,-0.293 -0.293,-0.768 0,-1.061l1.29,-1.29c0.16,-0.17 0.4,-0.25 0.62,-0.22c0.14,0.02 1.33,0.2 2.32,1.2c1,0.991 1.18,2.181 1.2,2.311z"></path></g></g></svg>